STARTFONT 2.1
COMMENT Exported by Fony v1.4.7
FONT u8g2_font_5x8_symbols_ahoy
SIZE 8 75 75
FONTBOUNDINGBOX 8 7 0 -1
STARTPROPERTIES 6
COPYRIGHT "Public domain font.  Share and enjoy."
RESOLUTION_X 75
RESOLUTION_Y 75
FONT_ASCENT 7
FONT_DESCENT 1
DEFAULT_CHAR 0
ENDPROPERTIES
CHARS 106
STARTCHAR 032
ENCODING 32
SWIDTH 216 0
DWIDTH 3 0
BBX 0 0 0 0
BITMAP
ENDCHAR
STARTCHAR 033
ENCODING 33
SWIDTH 360 0
DWIDTH 5 0
BBX 1 6 2 0
BITMAP
80
80
80
80
00
80
ENDCHAR
STARTCHAR 034
ENCODING 34
SWIDTH 360 0
DWIDTH 5 0
BBX 3 3 1 3
BITMAP
A0
A0
A0
ENDCHAR
STARTCHAR 035
ENCODING 35
SWIDTH 360 0
DWIDTH 5 0
BBX 5 7 0 0
BITMAP
50
50
F8
50
F8
50
50
ENDCHAR
STARTCHAR 036
ENCODING 36
SWIDTH 360 0
DWIDTH 5 0
BBX 5 7 0 0
BITMAP
20
70
A0
70
28
70
20
ENDCHAR
STARTCHAR 037
ENCODING 37
SWIDTH 360 0
DWIDTH 5 0
BBX 3 5 1 1
BITMAP
80
A0
40
A0
20
ENDCHAR
STARTCHAR 038
ENCODING 38
SWIDTH 360 0
DWIDTH 5 0
BBX 4 7 0 0
BITMAP
40
A0
A0
40
A0
A0
50
ENDCHAR
STARTCHAR 039
ENCODING 39
SWIDTH 360 0
DWIDTH 5 0
BBX 1 3 2 3
BITMAP
80
80
80
ENDCHAR
STARTCHAR 040
ENCODING 40
SWIDTH 360 0
DWIDTH 5 0
BBX 2 6 1 0
BITMAP
40
80
80
80
80
40
ENDCHAR
STARTCHAR 041
ENCODING 41
SWIDTH 360 0
DWIDTH 5 0
BBX 2 6 1 0
BITMAP
80
40
40
40
40
80
ENDCHAR
STARTCHAR 042
ENCODING 42
SWIDTH 360 0
DWIDTH 5 0
BBX 4 5 0 0
BITMAP
90
60
F0
60
90
ENDCHAR
STARTCHAR 043
ENCODING 43
SWIDTH 360 0
DWIDTH 5 0
BBX 5 5 0 0
BITMAP
20
20
F8
20
20
ENDCHAR
STARTCHAR 044
ENCODING 44
SWIDTH 360 0
DWIDTH 5 0
BBX 3 3 1 -1
BITMAP
60
40
80
ENDCHAR
STARTCHAR 045
ENCODING 45
SWIDTH 360 0
DWIDTH 5 0
BBX 4 1 0 2
BITMAP
F0
ENDCHAR
STARTCHAR 046
ENCODING 46
SWIDTH 360 0
DWIDTH 5 0
BBX 2 2 1 0
BITMAP
C0
C0
ENDCHAR
STARTCHAR 047
ENCODING 47
SWIDTH 360 0
DWIDTH 5 0
BBX 4 6 0 0
BITMAP
10
10
20
40
80
80
ENDCHAR
STARTCHAR 048
ENCODING 48
SWIDTH 360 0
DWIDTH 5 0
BBX 4 6 0 0
BITMAP
60
90
B0
D0
90
60
ENDCHAR
STARTCHAR 049
ENCODING 49
SWIDTH 360 0
DWIDTH 5 0
BBX 3 6 1 0
BITMAP
40
C0
40
40
40
E0
ENDCHAR
STARTCHAR 050
ENCODING 50
SWIDTH 360 0
DWIDTH 5 0
BBX 4 6 0 0
BITMAP
60
90
10
60
80
F0
ENDCHAR
STARTCHAR 051
ENCODING 51
SWIDTH 360 0
DWIDTH 5 0
BBX 4 6 0 0
BITMAP
F0
20
60
10
90
60
ENDCHAR
STARTCHAR 052
ENCODING 52
SWIDTH 360 0
DWIDTH 5 0
BBX 4 6 0 0
BITMAP
20
60
A0
F0
20
20
ENDCHAR
STARTCHAR 053
ENCODING 53
SWIDTH 360 0
DWIDTH 5 0
BBX 4 6 0 0
BITMAP
F0
80
E0
10
90
60
ENDCHAR
STARTCHAR 054
ENCODING 54
SWIDTH 360 0
DWIDTH 5 0
BBX 4 6 0 0
BITMAP
60
80
E0
90
90
60
ENDCHAR
STARTCHAR 055
ENCODING 55
SWIDTH 360 0
DWIDTH 5 0
BBX 4 6 0 0
BITMAP
F0
10
20
20
40
40
ENDCHAR
STARTCHAR 056
ENCODING 56
SWIDTH 360 0
DWIDTH 5 0
BBX 4 6 0 0
BITMAP
60
90
60
90
90
60
ENDCHAR
STARTCHAR 057
ENCODING 57
SWIDTH 360 0
DWIDTH 5 0
BBX 4 6 0 0
BITMAP
60
90
90
70
10
60
ENDCHAR
STARTCHAR 058
ENCODING 58
SWIDTH 360 0
DWIDTH 5 0
BBX 2 5 1 0
BITMAP
C0
C0
00
C0
C0
ENDCHAR
STARTCHAR 059
ENCODING 59
SWIDTH 360 0
DWIDTH 5 0
BBX 3 6 1 -1
BITMAP
60
60
00
60
40
80
ENDCHAR
STARTCHAR 060
ENCODING 60
SWIDTH 360 0
DWIDTH 5 0
BBX 3 6 1 0
BITMAP
20
40
80
80
40
20
ENDCHAR
STARTCHAR 061
ENCODING 61
SWIDTH 360 0
DWIDTH 5 0
BBX 4 3 0 1
BITMAP
F0
00
F0
ENDCHAR
STARTCHAR 062
ENCODING 62
SWIDTH 360 0
DWIDTH 5 0
BBX 3 6 1 0
BITMAP
80
40
20
20
40
80
ENDCHAR
STARTCHAR 063
ENCODING 63
SWIDTH 360 0
DWIDTH 5 0
BBX 3 6 1 0
BITMAP
40
A0
20
40
00
40
ENDCHAR
STARTCHAR 064
ENCODING 64
SWIDTH 360 0
DWIDTH 5 0
BBX 5 8 0 -1
BITMAP
30
48
98
A8
A8
90
40
30
ENDCHAR
STARTCHAR 065
ENCODING 65
SWIDTH 360 0
DWIDTH 5 0
BBX 4 6 0 0
BITMAP
60
90
90
F0
90
90
ENDCHAR
STARTCHAR 066
ENCODING 66
SWIDTH 360 0
DWIDTH 5 0
BBX 4 6 0 0
BITMAP
E0
90
E0
90
90
E0
ENDCHAR
STARTCHAR 067
ENCODING 67
SWIDTH 360 0
DWIDTH 5 0
BBX 4 6 0 0
BITMAP
60
90
80
80
90
60
ENDCHAR
STARTCHAR 068
ENCODING 68
SWIDTH 360 0
DWIDTH 5 0
BBX 4 6 0 0
BITMAP
E0
90
90
90
90
E0
ENDCHAR
STARTCHAR 069
ENCODING 69
SWIDTH 360 0
DWIDTH 5 0
BBX 4 6 0 0
BITMAP
F0
80
E0
80
80
F0
ENDCHAR
STARTCHAR 070
ENCODING 70
SWIDTH 360 0
DWIDTH 5 0
BBX 4 6 0 0
BITMAP
F0
80
E0
80
80
80
ENDCHAR
STARTCHAR 071
ENCODING 71
SWIDTH 360 0
DWIDTH 5 0
BBX 4 6 0 0
BITMAP
60
90
80
B0
90
60
ENDCHAR
STARTCHAR 072
ENCODING 72
SWIDTH 360 0
DWIDTH 5 0
BBX 4 6 0 0
BITMAP
90
90
F0
90
90
90
ENDCHAR
STARTCHAR 073
ENCODING 73
SWIDTH 360 0
DWIDTH 5 0
BBX 3 6 1 0
BITMAP
E0
40
40
40
40
E0
ENDCHAR
STARTCHAR 074
ENCODING 74
SWIDTH 360 0
DWIDTH 5 0
BBX 4 6 0 0
BITMAP
70
20
20
20
A0
40
ENDCHAR
STARTCHAR 075
ENCODING 75
SWIDTH 360 0
DWIDTH 5 0
BBX 4 6 0 0
BITMAP
90
A0
C0
A0
A0
90
ENDCHAR
STARTCHAR 076
ENCODING 76
SWIDTH 360 0
DWIDTH 5 0
BBX 4 6 0 0
BITMAP
80
80
80
80
80
F0
ENDCHAR
STARTCHAR 077
ENCODING 77
SWIDTH 360 0
DWIDTH 5 0
BBX 4 6 0 0
BITMAP
90
F0
F0
90
90
90
ENDCHAR
STARTCHAR 078
ENCODING 78
SWIDTH 360 0
DWIDTH 5 0
BBX 4 6 0 0
BITMAP
90
D0
F0
B0
90
90
ENDCHAR
STARTCHAR 079
ENCODING 79
SWIDTH 360 0
DWIDTH 5 0
BBX 4 6 0 0
BITMAP
60
90
90
90
90
60
ENDCHAR
STARTCHAR 080
ENCODING 80
SWIDTH 360 0
DWIDTH 5 0
BBX 4 6 0 0
BITMAP
E0
90
90
E0
80
80
ENDCHAR
STARTCHAR 081
ENCODING 81
SWIDTH 360 0
DWIDTH 5 0
BBX 4 7 0 -1
BITMAP
60
90
90
D0
B0
60
10
ENDCHAR
STARTCHAR 082
ENCODING 82
SWIDTH 360 0
DWIDTH 5 0
BBX 4 6 0 0
BITMAP
E0
90
90
E0
90
90
ENDCHAR
STARTCHAR 083
ENCODING 83
SWIDTH 360 0
DWIDTH 5 0
BBX 4 6 0 0
BITMAP
60
90
40
20
90
60
ENDCHAR
STARTCHAR 084
ENCODING 84
SWIDTH 360 0
DWIDTH 5 0
BBX 5 6 0 0
BITMAP
F8
20
20
20
20
20
ENDCHAR
STARTCHAR 085
ENCODING 85
SWIDTH 360 0
DWIDTH 5 0
BBX 4 6 0 0
BITMAP
90
90
90
90
90
60
ENDCHAR
STARTCHAR 086
ENCODING 86
SWIDTH 360 0
DWIDTH 5 0
BBX 4 6 0 0
BITMAP
90
90
90
90
60
60
ENDCHAR
STARTCHAR 087
ENCODING 87
SWIDTH 360 0
DWIDTH 5 0
BBX 4 6 0 0
BITMAP
90
90
90
F0
F0
90
ENDCHAR
STARTCHAR 088
ENCODING 88
SWIDTH 360 0
DWIDTH 5 0
BBX 4 6 0 0
BITMAP
90
90
60
60
90
90
ENDCHAR
STARTCHAR 089
ENCODING 89
SWIDTH 360 0
DWIDTH 5 0
BBX 5 6 0 0
BITMAP
88
88
50
20
20
20
ENDCHAR
STARTCHAR 090
ENCODING 90
SWIDTH 360 0
DWIDTH 5 0
BBX 4 6 0 0
BITMAP
F0
10
20
40
80
F0
ENDCHAR
STARTCHAR 091
ENCODING 91
SWIDTH 360 0
DWIDTH 5 0
BBX 3 6 1 0
BITMAP
E0
80
80
80
80
E0
ENDCHAR
STARTCHAR 092
ENCODING 92
SWIDTH 360 0
DWIDTH 5 0
BBX 4 6 0 0
BITMAP
80
80
40
20
10
10
ENDCHAR
STARTCHAR 093
ENCODING 93
SWIDTH 360 0
DWIDTH 5 0
BBX 3 6 1 0
BITMAP
E0
20
20
20
20
E0
ENDCHAR
STARTCHAR 094
ENCODING 94
SWIDTH 360 0
DWIDTH 5 0
BBX 3 2 1 4
BITMAP
40
A0
ENDCHAR
STARTCHAR 095
ENCODING 95
SWIDTH 360 0
DWIDTH 5 0
BBX 4 1 0 -1
BITMAP
F0
ENDCHAR
STARTCHAR 096
ENCODING 96
SWIDTH 360 0
DWIDTH 5 0
BBX 2 2 1 4
BITMAP
80
40
ENDCHAR
STARTCHAR 097
ENCODING 97
SWIDTH 360 0
DWIDTH 5 0
BBX 4 4 0 0
BITMAP
70
90
90
70
ENDCHAR
STARTCHAR 098
ENCODING 98
SWIDTH 360 0
DWIDTH 5 0
BBX 4 6 0 0
BITMAP
80
80
E0
90
90
E0
ENDCHAR
STARTCHAR 099
ENCODING 99
SWIDTH 360 0
DWIDTH 5 0
BBX 3 4 1 0
BITMAP
60
80
80
60
ENDCHAR
STARTCHAR 100
ENCODING 100
SWIDTH 360 0
DWIDTH 5 0
BBX 4 6 0 0
BITMAP
10
10
70
90
90
70
ENDCHAR
STARTCHAR 101
ENCODING 101
SWIDTH 360 0
DWIDTH 5 0
BBX 4 4 0 0
BITMAP
60
B0
C0
70
ENDCHAR
STARTCHAR 102
ENCODING 102
SWIDTH 360 0
DWIDTH 5 0
BBX 4 6 0 0
BITMAP
20
50
40
E0
40
40
ENDCHAR
STARTCHAR 103
ENCODING 103
SWIDTH 360 0
DWIDTH 5 0
BBX 4 5 0 -1
BITMAP
60
90
70
10
60
ENDCHAR
STARTCHAR 104
ENCODING 104
SWIDTH 360 0
DWIDTH 5 0
BBX 4 6 0 0
BITMAP
80
80
E0
90
90
90
ENDCHAR
STARTCHAR 105
ENCODING 105
SWIDTH 360 0
DWIDTH 5 0
BBX 3 6 1 0
BITMAP
40
00
C0
40
40
E0
ENDCHAR
STARTCHAR 106
ENCODING 106
SWIDTH 360 0
DWIDTH 5 0
BBX 3 7 1 -1
BITMAP
20
00
20
20
20
A0
40
ENDCHAR
STARTCHAR 107
ENCODING 107
SWIDTH 360 0
DWIDTH 5 0
BBX 4 6 0 0
BITMAP
80
80
90
E0
90
90
ENDCHAR
STARTCHAR 108
ENCODING 108
SWIDTH 360 0
DWIDTH 5 0
BBX 3 6 1 0
BITMAP
C0
40
40
40
40
E0
ENDCHAR
STARTCHAR 109
ENCODING 109
SWIDTH 360 0
DWIDTH 5 0
BBX 5 4 0 0
BITMAP
D0
A8
A8
A8
ENDCHAR
STARTCHAR 110
ENCODING 110
SWIDTH 360 0
DWIDTH 5 0
BBX 4 4 0 0
BITMAP
E0
90
90
90
ENDCHAR
STARTCHAR 111
ENCODING 111
SWIDTH 360 0
DWIDTH 5 0
BBX 4 4 0 0
BITMAP
60
90
90
60
ENDCHAR
STARTCHAR 112
ENCODING 112
SWIDTH 360 0
DWIDTH 5 0
BBX 4 5 0 -1
BITMAP
E0
90
E0
80
80
ENDCHAR
STARTCHAR 113
ENCODING 113
SWIDTH 360 0
DWIDTH 5 0
BBX 4 5 0 -1
BITMAP
70
90
70
10
10
ENDCHAR
STARTCHAR 114
ENCODING 114
SWIDTH 360 0
DWIDTH 5 0
BBX 4 4 0 0
BITMAP
A0
D0
80
80
ENDCHAR
STARTCHAR 115
ENCODING 115
SWIDTH 360 0
DWIDTH 5 0
BBX 3 4 1 0
BITMAP
60
C0
20
C0
ENDCHAR
STARTCHAR 116
ENCODING 116
SWIDTH 360 0
DWIDTH 5 0
BBX 4 6 0 0
BITMAP
40
40
E0
40
50
20
ENDCHAR
STARTCHAR 117
ENCODING 117
SWIDTH 360 0
DWIDTH 5 0
BBX 4 4 0 0
BITMAP
90
90
90
70
ENDCHAR
STARTCHAR 118
ENCODING 118
SWIDTH 360 0
DWIDTH 5 0
BBX 3 4 1 0
BITMAP
A0
A0
A0
40
ENDCHAR
STARTCHAR 119
ENCODING 119
SWIDTH 360 0
DWIDTH 5 0
BBX 5 4 0 0
BITMAP
88
A8
A8
50
ENDCHAR
STARTCHAR 120
ENCODING 120
SWIDTH 360 0
DWIDTH 5 0
BBX 4 4 0 0
BITMAP
90
60
60
90
ENDCHAR
STARTCHAR 121
ENCODING 121
SWIDTH 360 0
DWIDTH 5 0
BBX 4 5 0 -1
BITMAP
90
90
70
90
60
ENDCHAR
STARTCHAR 122
ENCODING 122
SWIDTH 360 0
DWIDTH 5 0
BBX 4 4 0 0
BITMAP
F0
20
40
F0
ENDCHAR
STARTCHAR 123
ENCODING 123
SWIDTH 360 0
DWIDTH 5 0
BBX 4 7 0 0
BITMAP
30
40
20
C0
20
40
30
ENDCHAR
STARTCHAR 124
ENCODING 124
SWIDTH 360 0
DWIDTH 5 0
BBX 1 6 2 0
BITMAP
80
80
80
80
80
80
ENDCHAR
STARTCHAR 125
ENCODING 125
SWIDTH 360 0
DWIDTH 5 0
BBX 4 7 0 0
BITMAP
C0
20
40
30
40
20
C0
ENDCHAR
STARTCHAR 126
ENCODING 126
SWIDTH 360 0
DWIDTH 5 0
BBX 4 2 0 4
BITMAP
50
A0
ENDCHAR
STARTCHAR 127
ENCODING 127
SWIDTH 360 0
DWIDTH 5 0
BBX 0 0 0 0
BITMAP
ENDCHAR
STARTCHAR 128
ENCODING 128
SWIDTH 360 0
DWIDTH 5 0
BBX 5 7 0 -1
BITMAP
F8
A8
A8
70
20
20
20
ENDCHAR
STARTCHAR 129
ENCODING 129
SWIDTH 432 0
DWIDTH 6 0
BBX 6 6 0 0
BITMAP
78
84
30
48
00
30
ENDCHAR
STARTCHAR 130
ENCODING 130
SWIDTH 576 0
DWIDTH 8 0
BBX 8 6 0 0
BITMAP
18
24
24
42
42
81
ENDCHAR
STARTCHAR 131
ENCODING 131
SWIDTH 576 0
DWIDTH 8 0
BBX 7 7 0 -1
BITMAP
FE
42
20
10
20
42
FE
ENDCHAR
STARTCHAR 132
ENCODING 132
SWIDTH 360 0
DWIDTH 5 0
BBX 5 7 0 -1
BITMAP
A8
00
A8
50
20
00
20
ENDCHAR
STARTCHAR 133
ENCODING 133
SWIDTH 432 0
DWIDTH 6 0
BBX 6 8 0 -1
BITMAP
84
78
CC
30
78
48
78
84
ENDCHAR
STARTCHAR 134
ENCODING 134
SWIDTH 576 0
DWIDTH 8 0
BBX 8 8 0 -1
BITMAP
24
3C
E7
42
42
E7
3C
24
ENDCHAR
STARTCHAR 135
ENCODING 135
SWIDTH 576 0
DWIDTH 8 0
BBX 7 7 0 0
BITMAP
04
06
06
0E
1E
FC
78
ENDCHAR
STARTCHAR 136
ENCODING 136
SWIDTH 576 0
DWIDTH 8 0
BBX 7 7 0 -1
BITMAP
FE
AA
82
B2
92
82
FE
ENDCHAR
STARTCHAR 137
ENCODING 137
SWIDTH 504 0
DWIDTH 7 0
BBX 6 6 0 0
BITMAP
E4
10
C8
24
94
D4
ENDCHAR
ENDFONT
